<?xml version="1.0" encoding="utf-8"?>
<!-- Generator: Adobe Illustrator 21.0.2, SVG Export Plug-In . SVG Version: 6.00 Build 0)  -->
<svg version="1.1" id="Layer_1" xmlns="http://www.w3.org/2000/svg" xmlns:xlink="http://www.w3.org/1999/xlink" x="0px" y="0px"
	 viewBox="0 0 520.2 108.3" style="enable-background:new 0 0 520.2 108.3;" xml:space="preserve">
<style type="text/css">
	.st0{fill:#FFFFFF;stroke:#231F20;stroke-miterlimit:10;}
	.st1{fill:none;stroke:#231F20;stroke-miterlimit:10;}
	.st2{fill:#E6E7E8;stroke:#231F20;stroke-linecap:round;stroke-miterlimit:10;}
	.st3{fill:none;stroke:#231F20;stroke-linecap:round;stroke-miterlimit:10;}
	.st4{fill:#231F20;}
	.st5{font-family:'ArialMT';}
	.st6{font-size:12px;}
	.st7{fill:none;}
	.st8{font-size:6.96px;}
</style>
<title>bar_uniaxial</title>
<rect x="72" y="11.9" class="st0" width="372.8" height="37.6"/>
<line class="st1" x1="72" y1="11.9" x2="55.2" y2="24.7"/>
<path class="st1" d="M71.8,27.2"/>
<path class="st1" d="M56.8,49.5"/>
<path class="st1" d="M72,43.1"/>
<line class="st1" x1="-169.6" y1="-70.5" x2="-184.8" y2="-64.1"/>
<line class="st1" x1="71.2" y1="43.6" x2="54.4" y2="56.4"/>
<line class="st1" x1="72" y1="28.7" x2="55.2" y2="41.5"/>
<polygon class="st2" points="501.6,42.2 501.6,20.6 514.1,31.4 "/>
<line class="st3" x1="445" y1="31.4" x2="501.4" y2="31.4"/>
<line class="st3" x1="72.8" y1="77.4" x2="443.9" y2="77.4"/>
<line class="st3" x1="444.8" y1="68.4" x2="444.8" y2="86.4"/>
<line class="st3" x1="71.8" y1="68.4" x2="71.8" y2="86.4"/>
<text transform="matrix(1 0 0 1 62.62 97.27)" class="st4 st5 st6">x=0</text>
<text transform="matrix(1 0 0 1 435.64 99.62)" class="st4 st5 st6">x=L</text>
<line class="st7" x1="38.7" y1="11.9" x2="38.7" y2="49.5"/>
<line class="st7" x1="27.8" y1="11.9" x2="49.7" y2="11.9"/>
<line class="st7" x1="86.9" y1="-33.8" x2="108.8" y2="-33.8"/>
<line class="st3" x1="48.9" y1="11.2" x2="28.6" y2="11.2"/>
<line class="st3" x1="38.1" y1="11.6" x2="38.1" y2="53.5"/>
<line class="st3" x1="48.9" y1="54.1" x2="28.6" y2="54.1"/>
<text transform="matrix(1 0 0 1 4.07 58.59)" class="st4 st5 st6">y=0</text>
<text transform="matrix(1 0 0 1 4.07 15.4)" class="st4 st5 st6">y=h</text>
<text transform="matrix(1 0 0 1 463.92 28.52)" class="st4 st5 st6">F</text>
<text transform="matrix(1 0 0 1 469.7695 24.5205)" class="st4 st5 st8">e</text>
<text transform="matrix(1 0 0 1 473.2383 24.5205)" class="st4 st5 st8">x</text>
<text transform="matrix(1 0 0 1 476.5508 24.5205)" class="st4 st5 st8">t</text>
</svg>
